<?xml version="1.0" encoding="UTF-8"?>
<svg width="100px" height="100px" viewBox="0 0 100 100" version="1.1" xmlns="http://www.w3.org/2000/svg" xmlns:xlink="http://www.w3.org/1999/xlink">
    <!-- Generator: Sketch 47.1 (45422) - http://www.bohemiancoding.com/sketch -->
    <title>simple-text</title>
    <desc>Created with Sketch.</desc>
    <defs></defs>
    <g id="Icons" stroke="none" stroke-width="1" fill="none" fill-rule="evenodd">
        <g id="simple-text">
            <circle id="Oval-path" fill="#9097A3" cx="50" cy="50" r="50"></circle>
            <path d="M28.6657973,31.5271439 L71.3342027,31.5271439 L71.3342027,31.5271439 C73.5433417,31.5271439 75.3342027,33.3180049 75.3342027,35.5271439 L75.3342027,64.4728561 L75.3342027,64.4728561 C75.3342027,66.6819951 73.5433417,68.4728561 71.3342027,68.4728561 L28.6657973,68.4728561 C26.4566583,68.4728561 24.6657973,66.6819951 24.6657973,64.4728561 L24.6657973,35.5271439 L24.6657973,35.5271439 C24.6657973,33.3180049 26.4566583,31.5271439 28.6657973,31.5271439 L28.6657973,31.5271439 Z M30.2936411,35.012276 L30.2936411,35.012276 C29.1890716,35.012276 28.2936411,35.9077065 28.2936411,37.012276 L28.2936411,37.012276 L28.2936411,62.987724 C28.2936411,64.0922935 29.1890716,64.987724 30.2936411,64.987724 L69.7063589,64.987724 C70.8109284,64.987724 71.7063589,64.0922935 71.7063589,62.987724 L71.7063589,62.987724 L71.7063589,37.012276 C71.7063589,35.9077065 70.8109284,35.012276 69.7063589,35.012276 L69.7063589,35.012276 L30.2936411,35.012276 Z M45.8332247,39.4440822 L47.9444082,39.4440822 L47.9444082,60.5559178 L45.8332247,60.5559178 L45.8332247,39.4440822 Z M37.4608569,43.5719063 L39.8556369,43.5719063 L44.8072497,56.4280937 L42.3944639,56.4280937 L41.1880709,53.0249853 L36.0563995,53.0249853 L34.8500065,56.4280937 L32.52725,56.4280937 L37.4608569,43.5719063 Z M36.6685989,51.3144281 L40.5938774,51.3144281 L38.6672499,45.7866277 L38.6132323,45.7866277 L36.6685989,51.3144281 Z" id="icon" fill="#FFFFFF" fill-rule="nonzero"></path>
        </g>
    </g>
</svg>